<svg 
 xmlns="http://www.w3.org/2000/svg"
 xmlns:xlink="http://www.w3.org/1999/xlink"
 width="242px" height="238px">
<path fill-rule="evenodd"  fill="rgb(255, 255, 255)"
 d="M127.000,-0.000 C139.332,22.998 151.668,46.002 163.1000,68.1000 C183.450,106.314 203.486,143.223 221.000,183.000 C228.374,199.747 240.678,215.870 241.1000,238.000 C240.667,237.333 239.333,236.667 237.1000,236.000 C225.990,230.063 218.333,215.983 208.1000,207.000 C185.967,184.831 159.634,159.898 127.1000,147.000 C102.288,136.516 70.806,140.782 56.1000,159.000 C72.998,161.1000 89.002,165.000 104.1000,168.000 C104.667,168.667 104.333,169.333 104.000,170.000 C69.337,177.333 34.663,184.667 0.000,192.000 C0.333,191.000 0.667,189.1000 1.000,189.000 C42.996,126.006 85.004,62.994 127.000,-0.000 Z"/>
</svg>